<svg width="32" height="32" viewBox="0 0 32 32" xmlns="http://www.w3.org/2000/svg">
  <defs>
    <linearGradient id="ecoGradient" x1="0%" y1="0%" x2="100%" y2="100%">
      <stop offset="0%" style="stop-color:#10b981;stop-opacity:1" />
      <stop offset="100%" style="stop-color:#3b82f6;stop-opacity:1" />
    </linearGradient>
  </defs>
  
  <!-- Background circle -->
  <circle cx="16" cy="16" r="15" fill="url(#ecoGradient)" stroke="white" stroke-width="2"/>
  
  <!-- Leaf icon -->
  <path d="M12 8c-2 0-4 2-4 4s2 4 4 4c1 0 2-.5 2.5-1.5L16 12l1.5 2.5c.5 1 1.5 1.5 2.5 1.5 2 0 4-2 4-4s-2-4-4-4c-1 0-2 .5-2.5 1.5L16 11l-1.5-2.5C14 7.5 13 8 12 8z" fill="white" opacity="0.9"/>
  
  <!-- Route lines -->
  <path d="M8 20h16M10 22h12M12 24h8" stroke="white" stroke-width="1.5" stroke-linecap="round" opacity="0.7"/>
</svg>